
        <svg xmlns="http://www.w3.org/2000/svg" xmlns:xlink="http://www.w3.org/1999/xlink" version="1.1" width="3147.783251231527" height="1006.4226476273617" viewBox="0 0 3147.783251231527 1006.4226476273617">
			
			<g transform="scale(7.389162561576355) translate(10, 10)">
				<defs id="SvgjsDefs1001"><linearGradient id="SvgjsLinearGradient1013"><stop id="SvgjsStop1014" stop-color="#905e26" offset="0"/><stop id="SvgjsStop1015" stop-color="#f5ec9b" offset="0.5"/><stop id="SvgjsStop1016" stop-color="#905e26" offset="1"/></linearGradient><linearGradient id="SvgjsLinearGradient1017"><stop id="SvgjsStop1018" stop-color="#905e26" offset="0"/><stop id="SvgjsStop1019" stop-color="#f5ec9b" offset="0.5"/><stop id="SvgjsStop1020" stop-color="#905e26" offset="1"/></linearGradient><linearGradient id="SvgjsLinearGradient1021"><stop id="SvgjsStop1022" stop-color="#905e26" offset="0"/><stop id="SvgjsStop1023" stop-color="#f5ec9b" offset="0.5"/><stop id="SvgjsStop1024" stop-color="#905e26" offset="1"/></linearGradient></defs><g id="SvgjsG1007" featureKey="aMgJeN-0" transform="matrix(1.3502110242843628,0,0,1.3502110242843628,-17.51054852320675,-9.40928270042194)" fill="#fff"><path xmlns="http://www.w3.org/2000/svg" style="font-size:medium;font-style:normal;font-variant:normal;font-weight:normal;font-stretch:normal;text-indent:0;text-align:start;text-decoration:none;line-height:normal;letter-spacing:normal;word-spacing:normal;text-transform:none;direction:ltr;block-progression:tb;writing-mode:lr-tb;text-anchor:start;baseline-shift:baseline;opacity:1;color:;fill:url(#SvgjsLinearGradient1013);fill-opacity:1;stroke:none;stroke-width:2;marker:none;visibility:visible;display:inline;overflow:visible;enable-background:accumulate;font-family:Sans;-inkscape-font-specification:Sans" d="M 41.84375 6.96875 C 39.050863 6.96875 36.75 9.2781131 36.75 12.0625 C 36.75 14.508767 38.517986 16.564708 40.84375 17.03125 L 40.84375 31.375 L 32.34375 31.375 A 1.0001 1.0001 0 0 0 31.34375 32.375 L 31.34375 40.875 L 19.0625 40.875 L 19.0625 25.15625 C 21.389074 24.690357 23.1875 22.634346 23.1875 20.1875 C 23.1875 17.403113 20.855387 15.125 18.0625 15.125 C 15.269613 15.125 12.96875 17.403113 12.96875 20.1875 C 12.96875 22.623839 14.750624 24.678664 17.0625 25.15625 L 17.0625 41.875 A 1.0001 1.0001 0 0 0 18.0625 42.875 L 31.34375 42.875 L 31.34375 57.125 L 18.0625 57.125 A 1.0001 1.0001 0 0 0 17.96875 57.125 A 1.0001 1.0001 0 0 0 17.0625 58.125 L 17.0625 74.84375 C 14.750624 75.321336 12.96875 77.376161 12.96875 79.8125 C 12.96875 82.596887 15.269613 84.875 18.0625 84.875 C 20.855387 84.875 23.1875 82.596887 23.1875 79.8125 C 23.1875 77.365654 21.389074 75.309643 19.0625 74.84375 L 19.0625 59.125 L 31.34375 59.125 L 31.34375 67.625 A 1.0001 1.0001 0 0 0 32.34375 68.625 L 40.84375 68.625 L 40.84375 82.96875 C 38.517986 83.435292 36.75 85.491233 36.75 87.9375 C 36.75 90.721887 39.050863 93.03125 41.84375 93.03125 C 44.636636 93.03125 46.9375 90.721887 46.9375 87.9375 C 46.9375 85.490653 45.170324 83.434643 42.84375 82.96875 L 42.84375 68.625 L 57.15625 68.625 L 57.15625 82.96875 C 54.829676 83.434643 53.0625 85.490653 53.0625 87.9375 C 53.0625 90.721887 55.363364 93.03125 58.15625 93.03125 C 60.949137 93.03125 63.25 90.721887 63.25 87.9375 C 63.25 85.491233 61.482014 83.435292 59.15625 82.96875 L 59.15625 68.625 L 67.65625 68.625 A 1.0001 1.0001 0 0 0 68.65625 67.625 L 68.65625 59.125 L 80.9375 59.125 L 80.9375 74.84375 C 78.610926 75.309643 76.8125 77.365654 76.8125 79.8125 C 76.8125 82.596887 79.144613 84.875 81.9375 84.875 C 84.730387 84.875 87.03125 82.596887 87.03125 79.8125 C 87.03125 77.376161 85.249376 75.321336 82.9375 74.84375 L 82.9375 58.125 A 1.0001 1.0001 0 0 0 81.9375 57.125 L 68.65625 57.125 L 68.65625 42.875 L 81.9375 42.875 A 1.0001 1.0001 0 0 0 82.9375 41.875 L 82.9375 25.15625 C 85.249376 24.678664 87.03125 22.623839 87.03125 20.1875 C 87.03125 17.403113 84.730387 15.125 81.9375 15.125 C 79.144613 15.125 76.8125 17.403113 76.8125 20.1875 C 76.8125 22.634346 78.610926 24.690357 80.9375 25.15625 L 80.9375 40.875 L 68.65625 40.875 L 68.65625 32.375 A 1.0001 1.0001 0 0 0 67.65625 31.375 L 59.15625 31.375 L 59.15625 17.03125 C 61.482014 16.564708 63.25 14.508767 63.25 12.0625 C 63.25 9.2781131 60.949137 6.96875 58.15625 6.96875 C 55.363364 6.96875 53.0625 9.2781131 53.0625 12.0625 C 53.0625 14.509347 54.829676 16.565357 57.15625 17.03125 L 57.15625 31.375 L 42.84375 31.375 L 42.84375 17.03125 C 45.170324 16.565357 46.9375 14.509347 46.9375 12.0625 C 46.9375 9.2781131 44.636636 6.96875 41.84375 6.96875 z M 41.84375 9.03125 C 43.554107 9.03125 44.90625 10.357348 44.90625 12.0625 C 44.90625 13.767653 43.554107 15.125 41.84375 15.125 C 40.133392 15.125 38.78125 13.767653 38.78125 12.0625 C 38.78125 10.357348 40.133392 9.03125 41.84375 9.03125 z M 58.15625 9.03125 C 59.866608 9.03125 61.21875 10.357348 61.21875 12.0625 C 61.21875 13.767653 59.866608 15.125 58.15625 15.125 C 56.445893 15.125 55.09375 13.767653 55.09375 12.0625 C 55.09375 10.357348 56.445893 9.03125 58.15625 9.03125 z M 18.0625 17.15625 C 19.772857 17.15625 21.125 18.482348 21.125 20.1875 C 21.125 21.892653 19.772857 23.25 18.0625 23.25 C 16.352142 23.25 15.03125 21.892653 15.03125 20.1875 C 15.03125 18.482348 16.352142 17.15625 18.0625 17.15625 z M 81.9375 17.15625 C 83.647858 17.15625 84.96875 18.482348 84.96875 20.1875 C 84.96875 21.892653 83.647858 23.25 81.9375 23.25 C 80.227143 23.25 78.875 21.892653 78.875 20.1875 C 78.875 18.482348 80.227143 17.15625 81.9375 17.15625 z M 33.34375 33.375 L 66.65625 33.375 L 66.65625 66.625 L 33.34375 66.625 L 33.34375 33.375 z M 18.0625 76.75 C 19.772857 76.75 21.125 78.107347 21.125 79.8125 C 21.125 81.517652 19.772857 82.84375 18.0625 82.84375 C 16.352142 82.84375 15.03125 81.517652 15.03125 79.8125 C 15.03125 78.107347 16.352142 76.75 18.0625 76.75 z M 81.9375 76.75 C 83.647858 76.75 84.96875 78.107347 84.96875 79.8125 C 84.96875 81.517652 83.647858 82.84375 81.9375 82.84375 C 80.227143 82.84375 78.875 81.517652 78.875 79.8125 C 78.875 78.107347 80.227143 76.75 81.9375 76.75 z M 41.84375 84.875 C 43.554107 84.875 44.90625 86.232347 44.90625 87.9375 C 44.90625 89.642652 43.554107 90.96875 41.84375 90.96875 C 40.133392 90.96875 38.78125 89.642652 38.78125 87.9375 C 38.78125 86.232347 40.133392 84.875 41.84375 84.875 z M 58.15625 84.875 C 59.866608 84.875 61.21875 86.232347 61.21875 87.9375 C 61.21875 89.642652 59.866608 90.96875 58.15625 90.96875 C 56.445893 90.96875 55.09375 89.642652 55.09375 87.9375 C 55.09375 86.232347 56.445893 84.875 58.15625 84.875 z "/></g><g id="SvgjsG1008" featureKey="textGroupContainer" transform="matrix(1,0,0,1,405,29)" fill="#fff"><rect xmlns="http://www.w3.org/2000/svg" y="0" height="1" width="1" opacity="0"/><rect xmlns="http://www.w3.org/2000/svg" y="0" x="-285" width="3" height="58"/></g><g id="SvgjsG1009" featureKey="8L6ael-0" transform="matrix(1.9708104133605957,0,0,1.9708104133605957,137.77802326168066,34.145948107566745)" fill="#fff"><path d="M14.78 18.86 q0.14 0.32 -0.07 0.65 t-0.57 0.33 l-13.32 0 q-0.18 0 -0.34 -0.09 t-0.24 -0.23 q-0.22 -0.32 -0.06 -0.66 l0.62 -1.46 q0.08 -0.2 0.26 -0.32 t0.38 -0.12 l9.32 0 l-3.28 -7.84 l-2.68 6.4 q-0.08 0.2 -0.25 0.31 t-0.39 0.11 l-1.68 0 q-0.38 0 -0.6 -0.32 q-0.08 -0.14 -0.1 -0.32 t0.04 -0.34 l4.06 -9.52 q0.08 -0.2 0.25 -0.32 t0.39 -0.12 l1.92 0 q0.22 0 0.39 0.12 t0.25 0.32 z M25.067999999999998 5 q2.38 0 3.84 1.37 t1.46 3.65 t-1.44 3.64 t-3.86 1.36 l-3.82 0 l0 4.08 q0 0.28 -0.21 0.49 t-0.49 0.21 l-1.52 0 q-0.28 0 -0.49 -0.21 t-0.21 -0.49 l0 -6.2 q0 -0.28 0.21 -0.49 t0.49 -0.21 l5.92 0 q1.34 0 1.92 -0.58 q0.58 -0.52 0.58 -1.58 t-0.6 -1.63 t-1.9 -0.57 l-5.92 0 q-0.28 0 -0.49 -0.21 t-0.21 -0.49 l0 -1.44 q0 -0.28 0.21 -0.49 t0.49 -0.21 l6.04 0 z M40.916 5 q2.38 0 3.84 1.37 t1.46 3.65 t-1.44 3.64 t-3.86 1.36 l-3.82 0 l0 4.08 q0 0.28 -0.21 0.49 t-0.49 0.21 l-1.52 0 q-0.28 0 -0.49 -0.21 t-0.21 -0.49 l0 -6.2 q0 -0.28 0.21 -0.49 t0.49 -0.21 l5.92 0 q1.34 0 1.92 -0.58 q0.58 -0.52 0.58 -1.58 t-0.6 -1.63 t-1.9 -0.57 l-5.92 0 q-0.28 0 -0.49 -0.21 t-0.21 -0.49 l0 -1.44 q0 -0.28 0.21 -0.49 t0.49 -0.21 l6.04 0 z M58.964 5.52 q1.22 0.46 2.2 1.48 q2.1 2.12 2.1 5.41 t-2.1 5.43 q-0.98 1.02 -2.2 1.48 q-1.26 0.52 -2.58 0.52 l-5.66 0 q-0.28 0 -0.49 -0.21 t-0.21 -0.49 l0 -1.44 q0 -0.3 0.21 -0.51 t0.49 -0.21 l5.6 0 q1.78 0 2.89 -1.3 t1.11 -3.26 t-1.11 -3.26 t-2.89 -1.3 l-5.6 0 q-0.28 0 -0.49 -0.21 t-0.21 -0.51 l0 -1.44 q0 -0.28 0.21 -0.49 t0.49 -0.21 l5.66 0 q1.32 0 2.58 0.52 z M78.032 16.96 q0.3 0 0.5 0.21 t0.2 0.51 l0 1.46 q0 0.28 -0.2 0.49 t-0.5 0.21 l-9.88 0 q-0.28 0 -0.49 -0.21 t-0.21 -0.49 l0 -1.46 q0 -0.3 0.21 -0.51 t0.49 -0.21 l9.88 0 z M68.15199999999999 13.86 q-0.28 0 -0.49 -0.21 t-0.21 -0.49 l0 -1.5 q0 -0.28 0.21 -0.49 t0.49 -0.21 l8.98 0 q0.3 0 0.51 0.21 t0.21 0.49 l0 1.5 q0 0.28 -0.21 0.49 t-0.51 0.21 l-8.98 0 z M78.032 5 q0.3 0 0.5 0.21 t0.2 0.49 l0 1.46 q0 0.3 -0.2 0.51 t-0.5 0.21 l-9.88 0 q-0.28 0 -0.49 -0.21 t-0.21 -0.51 l0 -1.46 q0 -0.28 0.21 -0.49 t0.49 -0.21 l9.88 0 z M92.42 11.12 q0.3 0 0.51 0.21 t0.21 0.51 l0 1.48 q0 0.28 -0.21 0.49 t-0.51 0.21 l-6.58 0 l0 5.12 q0 0.28 -0.2 0.49 t-0.5 0.21 l-1.52 0 q-0.28 0 -0.49 -0.21 t-0.21 -0.49 l0 -7.3 q0 -0.3 0.21 -0.51 t0.49 -0.21 l8.8 0 z M93.32 5 q0.28 0 0.49 0.21 t0.21 0.49 l0 1.46 q0 0.3 -0.21 0.51 t-0.49 0.21 l-9.7 0 q-0.28 0 -0.49 -0.21 t-0.21 -0.51 l0 -1.46 q0 -0.28 0.21 -0.49 t0.49 -0.21 l9.7 0 z M99.788 16.28 q0.28 0 0.49 0.2 t0.21 0.5 l0 2.08 q0 0.28 -0.21 0.49 t-0.49 0.21 l-1.82 0 q-0.3 0 -0.5 -0.21 t-0.2 -0.49 l0 -2.08 q0 -0.3 0.2 -0.5 t0.5 -0.2 l1.82 0 z M107.096 10.94 q0.3 0 0.5 0.21 t0.2 0.51 l0 7.48 q0 0.28 -0.2 0.49 t-0.5 0.21 l-1.52 0 q-0.28 0 -0.49 -0.21 t-0.21 -0.49 l0 -7.48 q0 -0.3 0.21 -0.51 t0.49 -0.21 l1.52 0 z M107.096 5 q0.3 0 0.5 0.21 t0.2 0.49 l0 3.7 q0 0.3 -0.2 0.51 t-0.5 0.21 l-1.52 0 q-0.28 0 -0.49 -0.21 t-0.21 -0.51 l0 -3.7 q0 -0.28 0.21 -0.49 t0.49 -0.21 l1.52 0 z M118.604 5.16 q0.24 0.2 0.24 0.54 l0 1.5 q0 0.26 -0.15 0.45 t-0.41 0.25 q-1.28 0.26 -2.18 1.22 q-1.22 1.28 -1.22 3.33 t1.22 3.35 q0.9 0.94 2.18 1.2 q0.26 0.06 0.41 0.25 t0.15 0.45 l0 1.5 q0 0.32 -0.24 0.54 q-0.22 0.16 -0.46 0.16 l-0.12 0 q-2.32 -0.38 -3.98 -2.1 q-2.08 -2.14 -2.08 -5.33 t2.08 -5.37 q1.62 -1.68 3.98 -2.08 q0.32 -0.06 0.58 0.14 z M124.884 7.1 q2.08 2.18 2.08 5.37 t-2.08 5.33 q-1.66 1.72 -3.98 2.1 l-0.12 0 q-0.24 0 -0.46 -0.16 q-0.24 -0.22 -0.24 -0.54 l0 -1.5 q0 -0.26 0.15 -0.45 t0.41 -0.25 q1.28 -0.26 2.18 -1.2 q1.22 -1.3 1.22 -3.35 t-1.22 -3.33 q-0.9 -0.96 -2.18 -1.22 q-0.26 -0.06 -0.41 -0.25 t-0.15 -0.45 l0 -1.5 q0 -0.34 0.25 -0.54 t0.57 -0.14 q2.36 0.4 3.98 2.08 z"/></g>
			</g>
		</svg>
	